<?xml version="1.0" encoding="UTF-8"?>
<svg width="77px" height="89px" viewBox="0 0 77 89" version="1.1" xmlns="http://www.w3.org/2000/svg" xmlns:xlink="http://www.w3.org/1999/xlink">
    <!-- Generator: Sketch 41 (35326) - http://www.bohemiancoding.com/sketch -->
    <title>Untitled</title>
    <desc>Created with Sketch.</desc>
    <defs>
        <filter x="-50%" y="-50%" width="200%" height="200%" filterUnits="objectBoundingBox" id="filter-1">
            <feOffset dx="0" dy="2" in="SourceAlpha" result="shadowOffsetOuter1"></feOffset>
            <feGaussianBlur stdDeviation="2" in="shadowOffsetOuter1" result="shadowBlurOuter1"></feGaussianBlur>
            <feColorMatrix values="0 0 0 0 0   0 0 0 0 0   0 0 0 0 0  0 0 0 0.5 0" type="matrix" in="shadowBlurOuter1" result="shadowMatrixOuter1"></feColorMatrix>
            <feMerge>
                <feMergeNode in="shadowMatrixOuter1"></feMergeNode>
                <feMergeNode in="SourceGraphic"></feMergeNode>
            </feMerge>
        </filter>
    </defs>
    <g id="Page-1" stroke="none" stroke-width="1" fill="none" fill-rule="evenodd">
        <g id="noun_715527_cc" transform="translate(4.000000, 2.000000)" fill="#FFFFFF">
            <g id="Group" filter="url(#filter-1)">
                <path d="M22,29.3 C21.9,29.9 21.7,30.5 21.5,31.2 C20.2,36.3 18.4,43.2 20.9,46.8 L19.2,48.5 C18.8,48.9 18.8,49.5 19.2,49.9 C19.4,50.1 19.7,50.2 19.9,50.2 C20.1,50.2 20.4,50.1 20.6,49.9 L22.3,48.2 C23.8,49.2 25.7,49.6 27.8,49.6 C31.9,49.6 36.6,48.2 40.2,47.1 L41,47 C43.1,49.3 46.1,50.8 49.5,50.8 L50,50.8 C53.1,50.7 55.9,49.4 58,47.1 C60.1,44.9 61.2,41.9 61,38.9 C60.9,37.2 60.1,35.2 58.6,32.5 C58.1,31.7 57.6,30.9 57.1,30.1 C57.7,27.2 57.5,24.4 56.8,21.9 C58.4,21.6 59.9,20.8 61.1,19.7 C62.4,18.4 63.2,16.7 63.4,14.9 L63.5,14.9 C65.3,14.9 67.8,14.1 68.9,10.9 C69.1,10.4 68.8,9.8 68.3,9.6 C67.8,9.4 67.2,9.7 67,10.2 C66.2,12.6 64.3,12.8 63.4,12.8 C63.2,11.1 62.4,9.5 61.1,8.2 C59.9,7 58.4,6.3 56.8,6 C56.8,5 57.2,3.4 59.4,2.7 C59.9,2.5 60.2,2 60,1.4 C59.8,0.9 59.3,0.6 58.7,0.8 C55.7,1.8 54.8,4.2 54.7,5.9 C52.8,6 51,6.8 49.6,8.2 C48.4,9.4 47.6,10.9 47.4,12.5 C44.6,11.6 41.4,11.6 38.2,12.4 C34.8,10.5 31.3,8.9 28.8,9 C22.5,9.3 17.6,14.6 17.8,20.9 C17.9,24.3 19.5,27.3 22,29.3 Z M30.6,47.5 L21.9,38.8 C22.2,37 22.6,35.1 23,33.4 L35.9,46.3 C34.2,46.8 32.4,47.3 30.6,47.5 Z M23,46.2 C22,45.2 21.7,43.4 21.7,41.4 L28,47.7 C25.9,47.7 24.1,47.3 23,46.2 Z M39.7,45.3 C39.2,45.4 38.7,45.6 38.1,45.8 L23.6,31.2 C23.7,31 23.7,30.7 23.8,30.5 C25.4,31.4 27.3,31.9 29.3,31.9 L29.8,31.9 C30.1,31.9 30.5,31.8 30.8,31.8 L38.1,39.1 L38.1,39.7 C38.1,41.8 38.7,43.6 39.7,45.3 L39.7,45.3 Z M47.1,21.1 L47.5,21.5 C46.9,22.2 46,23.5 44.9,25.1 L43.8,24 C45.2,22.8 46.4,21.8 47.1,21.1 Z M42.2,25.2 L43.7,26.7 C42.9,27.9 42.1,29.2 41.3,30.5 L38.6,27.8 C39.9,27 41.1,26.1 42.2,25.2 Z M36.9,29 L40.3,32.4 C39.5,33.9 38.9,35.4 38.5,36.7 L32.9,31.1 C33.9,30.7 34.9,30.2 36.1,29.5 C36.3,29.4 36.6,29.2 36.9,29 Z M58.9,38.9 L58.9,38.9 C59,41.4 58.1,43.8 56.4,45.7 C54.7,47.6 52.4,48.6 49.8,48.7 C44.6,48.9 40.2,44.8 40,39.6 C39.9,35.6 45.8,27 48.8,23 C50.5,24.8 54.3,29.3 56.8,33.5 C58.5,36.3 58.9,38 58.9,38.9 Z M49.3,13.3 C49.4,11.9 50,10.6 51,9.7 C52.1,8.6 53.7,7.9 55.3,7.9 C56.9,7.9 58.4,8.5 59.6,9.7 C60.7,10.8 61.4,12.4 61.4,14 C61.4,15.6 60.8,17.1 59.6,18.3 C58.6,19.3 57.3,19.9 56,20 C55.3,18.6 54.4,17.2 53.3,16.1 C52.1,14.9 50.7,14 49.3,13.3 L49.3,13.3 Z M51.8,17.4 C54.4,20 55.6,23.7 55.3,27.7 C52.8,24.4 50.3,21.6 49.6,20.9 C49.6,20.9 45.3,16.9 40.7,14 C45,13.5 49,14.7 51.8,17.4 Z M28.9,11 L29.1,11 C33.2,11 41.7,16.8 45.6,19.8 C43.8,21.5 39.3,25.3 35.1,27.8 C32.2,29.5 30.6,29.9 29.7,29.9 C24.5,30.1 20.1,26 19.9,20.8 C19.6,15.6 23.6,11.2 28.9,11 Z" id="Shape"></path>
                <path d="M15.9,54.3 C16.2,54.3 16.5,54.2 16.7,53.9 C17.2,53.2 17.6,52.9 17.6,52.8 C18,52.4 18,51.8 17.6,51.4 C17.2,51 16.6,51 16.2,51.4 C16.2,51.4 15.8,51.8 15.2,52.6 C14.8,53 14.9,53.7 15.3,54 C15.5,54.2 15.7,54.3 15.9,54.3 Z" id="Shape"></path>
                <path d="M10.6,66.3 L10.6,66.3 C11.2,66.3 11.6,65.9 11.6,65.3 C11.6,64.4 11.8,63.5 12,62.5 C12.1,62 11.8,61.4 11.3,61.3 C10.8,61.2 10.2,61.5 10.1,62 C9.8,63.1 9.6,64.2 9.6,65.3 C9.6,65.8 10,66.3 10.6,66.3 Z" id="Shape"></path>
                <path d="M11.9,59.8 C12,59.9 12.2,59.9 12.3,59.9 C12.7,59.9 13,59.7 13.2,59.3 C13.6,58.4 14.1,57.6 14.6,56.7 C14.9,56.2 14.8,55.6 14.3,55.3 C13.8,55 13.2,55.1 12.9,55.6 C12.3,56.5 11.8,57.5 11.3,58.4 C11.2,59 11.4,59.6 11.9,59.8 Z" id="Shape"></path>
                <path d="M4.9,76.2 C5.2,76.2 5.4,76.1 5.6,75.9 C6.3,75.2 7.1,74.5 7.8,73.8 C8.2,73.4 8.3,72.8 7.9,72.4 C7.5,72 6.9,71.9 6.5,72.3 C5.7,73 5,73.7 4.2,74.4 C3.8,74.8 3.8,75.4 4.2,75.8 C4.4,76.1 4.7,76.2 4.9,76.2 Z" id="Shape"></path>
                <path d="M10.6,71.7 C10.8,71.6 11,71.4 11.2,71.3 C11.4,71.6 11.6,71.9 11.8,72.2 C12,72.5 12.3,72.6 12.6,72.6 C12.8,72.6 13,72.5 13.2,72.4 C13.7,72.1 13.8,71.5 13.4,71 C13.2,70.7 13,70.4 12.9,70.2 C13,70.1 13.1,70.1 13.1,70.1 C13.6,69.8 13.7,69.2 13.4,68.7 C13,68.2 12.4,68 12,68.3 C11.8,67.9 11.3,67.7 10.8,67.9 C10.3,68.1 10,68.6 10.2,69.2 C10.2,69.3 10.3,69.4 10.3,69.5 C10,69.7 9.7,69.9 9.4,70.2 C9,70.5 8.9,71.2 9.2,71.6 C9.5,71.9 10.1,72 10.6,71.7 Z" id="Shape"></path>
                <path d="M21.1,76.3 C20.6,76.2 20,76.5 19.9,77 C19.8,77.5 20.1,78.1 20.6,78.2 C21.6,78.5 22.7,78.7 23.7,78.9 L23.9,78.9 C24.4,78.9 24.8,78.6 24.9,78.1 C25,77.6 24.6,77 24.1,77 C23,76.8 22,76.6 21.1,76.3 Z" id="Shape"></path>
                <path d="M14.7,67.8 C14.9,68.2 15.2,68.4 15.6,68.4 C15.7,68.4 15.9,68.4 16,68.3 C16.9,67.9 17.8,67.5 18.7,67.1 C19.2,66.9 19.5,66.3 19.3,65.8 C19.1,65.3 18.5,65 18,65.2 C17,65.6 16,66 15.1,66.5 C14.7,66.7 14.5,67.3 14.7,67.8 Z" id="Shape"></path>
                <path d="M15.6,73.4 C15.2,73.1 14.5,73.1 14.2,73.5 C13.9,73.9 13.9,74.6 14.3,74.9 C15.1,75.5 16,76.2 17,76.7 C17.2,76.8 17.3,76.8 17.5,76.8 C17.8,76.8 18.2,76.6 18.4,76.3 C18.7,75.8 18.5,75.2 18,74.9 C17.1,74.5 16.3,74 15.6,73.4 Z" id="Shape"></path>
                <path d="M32.4,66.3 C32.6,65.8 32.4,65.2 31.9,65 C30.9,64.6 29.9,64.3 28.7,64.1 C28.2,64 27.6,64.4 27.5,64.9 C27.4,65.4 27.8,66 28.3,66.1 C29.3,66.3 30.2,66.5 31,66.9 C31.1,67 31.3,67 31.4,67 C31.9,66.9 32.2,66.6 32.4,66.3 Z" id="Shape"></path>
                <path d="M35.9,73.2 C35.4,73 34.8,73.3 34.6,73.8 C34.3,74.6 33.8,75.3 33.1,75.8 C32.7,76.1 32.6,76.8 32.9,77.2 C33.1,77.5 33.4,77.6 33.7,77.6 C33.9,77.6 34.1,77.5 34.3,77.4 C35.3,76.6 36,75.7 36.4,74.5 C36.7,73.9 36.4,73.4 35.9,73.2 Z" id="Shape"></path>
                <path d="M26,64.7 C26,64.1 25.5,63.7 24.9,63.8 C23.9,63.9 22.8,64 21.7,64.2 C21.2,64.3 20.8,64.8 20.9,65.4 C21,65.9 21.4,66.2 21.9,66.2 L22.1,66.2 C23.1,66 24.1,65.9 25,65.8 C25.6,65.8 26,65.3 26,64.7 Z" id="Shape"></path>
                <path d="M36.8,70.4 C36.5,69.3 36,68.2 35.1,67.3 C34.7,66.9 34.1,66.9 33.7,67.2 C33.3,67.6 33.3,68.2 33.6,68.6 C34.2,69.3 34.6,70 34.8,70.8 C34.9,71.3 35.3,71.6 35.8,71.6 L36,71.6 C36.6,71.4 36.9,70.9 36.8,70.4 Z" id="Shape"></path>
                <path d="M30.3,77 C29.5,77.2 28.6,77.2 27.6,77.2 L27.4,77.2 L27.4,77.2 C26.9,77.2 26.4,77.6 26.4,78.2 C26.4,78.8 26.8,79.2 27.4,79.2 L27.6,79.2 C28.7,79.2 29.7,79.1 30.7,78.9 C31.2,78.8 31.6,78.3 31.5,77.7 C31.3,77.2 30.8,76.9 30.3,77 Z" id="Shape"></path>
                <path d="M1.4,80 C1.7,80 2,79.9 2.2,79.7 C2.5,79.3 2.8,78.9 3.2,78.6 C3.6,78.2 3.5,77.6 3.1,77.2 C2.7,76.8 2.1,76.9 1.7,77.3 C1.4,77.7 1,78.1 0.7,78.4 C0.3,78.8 0.4,79.5 0.8,79.8 C0.9,79.9 1.2,80 1.4,80 Z" id="Shape"></path>
            </g>
        </g>
    </g>
</svg>